<svg xmlns="http://www.w3.org/2000/svg" width="164" height="46" viewBox="0 0 164 46">
    <g fill="#000" fill-rule="evenodd">
        <path d="M143.66 1.032h5.046L133.951 33.66h-4.093L115.055 1.032h5.093l11.423 26.121.238.618h.19l.191-.618zM163.224 10.055l-8.996 19.9h9.662v3.705h-16.182l8.805-19.9h-8.282v-3.705zM94.922 33.66V10.055h3.57l.38 2.423h.238c1.285-1.663 3.95-3.515 7.568-3.515 5.616 0 9.186 4.085 9.186 9.736v14.96h-4.426v-14.2c0-4.037-2.142-6.316-5.712-6.316-2.808 0-5.426 2.28-6.283 4.796v15.72h-4.521zM49.658 30.478c-3.332 0-5.95-1.805-7.092-4.037v-8.834c1.19-2.47 3.998-4.465 7.092-4.465 4.426 0 7.567 3.943 7.567 8.692 0 4.607-2.95 8.644-7.567 8.644m.666-21.515c-3.522 0-6.283 1.472-8.092 3.515h-.237l-.381-2.422h-3.57v35.857h4.522V31.76c1.38 1.71 4.331 2.897 7.282 2.897 6.997 0 12.185-5.794 12.185-12.823 0-7.077-4.712-12.871-11.71-12.871M70.6 19.032c.762-3.277 3.57-5.89 7.473-5.89 3.855 0 6.425 2.518 7.186 5.89H70.6zm7.615-10.069c-7.282 0-12.803 5.462-12.803 12.87 0 7.315 5.378 12.824 12.803 12.824 5.76 0 10.281-3.847 11.709-8.644h-4.426c-1.285 2.565-3.522 4.512-7.283 4.512-4.474 0-7.663-3.42-7.948-7.456h19.99c.667-7.6-4.378-14.106-12.042-14.106zM17.102 30.098c-6.854 0-12.09-5.414-12.09-12.49 0-7.077 5.236-12.54 12.09-12.54 6.853 0 12.09 5.463 12.09 12.54 0 7.076-5.237 12.49-12.09 12.49m0-29.589C7.535.51.11 7.966.11 17.607c0 9.641 7.425 17.05 16.992 17.05s16.992-7.409 16.992-17.05C34.094 7.966 26.669.51 17.102.51"/>
    </g>
</svg>
