<svg xmlns="http://www.w3.org/2000/svg" width="24" height="22" viewBox="0 0 24 22">
    <path fill="#000" fill-rule="evenodd" d="M12 0C5.378 0 0 5.086 0 11.347c0 4.851 3.226 9.003 7.76 10.623a.532.532 0 0 0 .67-.293l2.592-6.46a.463.463 0 0 0-.01-.385.499.499 0 0 0-.3-.262c-1.38-.494-2.364-1.74-2.364-3.223 0-1.913 1.628-3.453 3.652-3.453s3.652 1.54 3.652 3.453c0 1.483-.984 2.73-2.364 3.223a.499.499 0 0 0-.3.262.463.463 0 0 0-.01.385l2.593 6.46c.1.255.397.386.668.293C20.774 20.35 24 16.198 24 11.347 24 5.086 18.622 0 12 0z" opacity=".25"/>
</svg>
