<svg xmlns="http://www.w3.org/2000/svg" width="21" height="21" viewBox="0 0 21 21">
    <g fill="none" fill-rule="evenodd" opacity=".5">
        <path d="M-1.999-1h24v24.002h-24z"/>
        <g fill="#000" fill-rule="nonzero">
            <path d="M20 1a.998.998 0 0 0-.97-.257c-2.641.72-3.226.816-4.784 1.552l4.458 4.459c.733-1.552.83-2.133 1.553-4.783A1.001 1.001 0 0 0 20 1zM10.311 5.032l-7.27 7.271 5.657 5.656 7.271-7.269c.649-.65 1.206-1.375 1.712-2.131L12.442 3.32c-.757.507-1.482 1.063-2.131 1.712zM1.626 15.131C.455 16.303.212 20.788.212 20.788s4.485-.243 5.657-1.415c.546-.545.827-1.25.864-1.964L3.59 14.268a2.974 2.974 0 0 0-1.964.863zM6.232 8.061H1.626L.212 9.475l2.303 2.302zM11.525 20.788l1.415-1.414v-4.586l-3.707 3.707z"/>
        </g>
    </g>
</svg>
