<svg width="156" height="32" viewBox="0 0 156 32" fill="none" xmlns="http://www.w3.org/2000/svg">
<path fill-rule="evenodd" clip-rule="evenodd" d="M40.043 10.838H39.876L39.609 7.862H36.6V28.2H40.377V16.994C40.377 12.077 43.719 11.173 45.725 11.106V7.795C42.917 7.594 41.178 8.898 40.042 10.838H40.043ZM117.96 7.794H105.19V11.006H112.344L104.689 28.2H118.561V24.989H110.205L117.96 7.794ZM132.938 7.794H120.203V11.006H127.356L119.701 28.2H133.573V24.989H125.217L132.938 7.794ZM24.602 0.000999988L14.74 22.378L14.573 22.914H14.406L14.238 22.378L4.312 0.000999988H0L12.735 28.201H16.245L28.914 0.000999988H24.602ZM75.616 19.67C75.549 23.952 73.51 25.624 70.97 25.624C68.43 25.624 66.39 23.952 66.39 19.67V7.794H62.513V20.038C62.48 25.524 65.388 29.204 70.97 29.204C76.552 29.204 79.493 25.524 79.493 20.038V7.794H75.616V19.67ZM93.009 25.691C88.964 25.691 85.889 22.145 85.889 17.998C85.889 13.849 88.964 10.304 93.009 10.304C97.053 10.304 100.129 13.849 100.129 17.998C100.129 22.145 97.053 25.691 93.009 25.691ZM93.009 6.791C86.758 6.791 81.912 11.741 81.912 17.998C81.912 24.253 86.758 29.204 93.009 29.204C99.259 29.204 104.106 24.254 104.106 17.998C104.106 11.742 99.259 6.791 93.009 6.791ZM28.412 28.2H32.356V7.795H28.412V28.2ZM144.67 25.691C140.626 25.691 137.55 22.145 137.55 17.998C137.55 13.849 140.626 10.304 144.67 10.304C148.715 10.304 151.79 13.849 151.79 17.998C151.79 22.145 148.715 25.691 144.67 25.691ZM144.67 6.791C138.42 6.791 133.572 11.741 133.572 17.998C133.572 24.253 138.42 29.204 144.67 29.204C150.921 29.204 155.767 24.254 155.767 17.998C155.767 11.742 150.921 6.791 144.67 6.791ZM54.505 0.000999988H50.66L50.694 7.794H47.481V11.006H50.694V21.242C50.694 25.389 52.666 28.165 57.345 28.165H58.883V24.821C55.44 24.821 54.503 23.416 54.503 19.235V11.005H59.785V7.795H54.504V-5.91278e-08L54.505 0.000999988Z" transform="translate(0 1.91199)" fill="black"/>
<path fill-rule="evenodd" clip-rule="evenodd" d="M8.123 10.202V7.76H4.478L8.389 0H0.468V2.408H3.944L4.65393e-07 10.202H8.123Z" transform="translate(10.362)" fill="#CB333B"/>
</svg>
