<svg xmlns="http://www.w3.org/2000/svg" width="156" height="32" viewBox="0 0 156 32">
    <g fill="#FFF" fill-rule="evenodd">
        <path d="M40.043 12.75h-.167l-.267-2.976H36.6v20.338h3.777V18.906c0-4.917 3.342-5.821 5.348-5.888V9.707c-2.808-.201-4.547 1.103-5.683 3.043zM117.96 9.706h-12.77v3.212h7.154l-7.655 17.194h13.872v-3.211h-8.356zM132.938 9.706h-12.735v3.212h7.153l-7.655 17.194h13.872v-3.211h-8.356zM24.602 1.913L14.74 24.29l-.167.536h-.167l-.168-.536L4.312 1.913H0l12.735 28.2h3.51l12.669-28.2zM75.616 21.582c-.067 4.282-2.106 5.954-4.646 5.954s-4.58-1.672-4.58-5.954V9.706h-3.877V21.95c-.033 5.486 2.875 9.166 8.457 9.166 5.582 0 8.523-3.68 8.523-9.166V9.706h-3.877v11.876zM93.009 27.603c-4.045 0-7.12-3.546-7.12-7.693 0-4.149 3.075-7.694 7.12-7.694 4.044 0 7.12 3.545 7.12 7.694 0 4.147-3.076 7.693-7.12 7.693m0-18.9c-6.251 0-11.097 4.95-11.097 11.207 0 6.255 4.846 11.206 11.097 11.206 6.25 0 11.097-4.95 11.097-11.206 0-6.256-4.847-11.207-11.097-11.207M28.412 30.112h3.944V9.707h-3.944zM144.67 27.603c-4.044 0-7.12-3.546-7.12-7.693 0-4.149 3.076-7.694 7.12-7.694 4.045 0 7.12 3.545 7.12 7.694 0 4.147-3.075 7.693-7.12 7.693m0-18.9c-6.25 0-11.098 4.95-11.098 11.207 0 6.255 4.848 11.206 11.098 11.206 6.251 0 11.097-4.95 11.097-11.206 0-6.256-4.846-11.207-11.097-11.207M54.505 1.913H50.66l.034 7.793h-3.213v3.212h3.213v10.236c0 4.147 1.972 6.923 6.651 6.923h1.538v-3.344c-3.443 0-4.38-1.405-4.38-5.586v-8.23h5.282v-3.21h-5.281V1.912z"/>
        <path d="M18.485 10.202V7.76H14.84L18.751 0H10.83v2.408h3.476l-3.944 7.794z"/>
    </g>
</svg>
